<svg xmlns="http://www.w3.org/2000/svg" viewBox="0 0 64 64" width="64" height="64">
  <!-- Фон -->
  <circle cx="32" cy="32" r="30" fill="#4CAF50" />
  
  <!-- Игровой контроллер (стилизованный) -->
  <path d="M20 24 L20 40 L44 40 L44 24 Z" fill="#333" />
  <circle cx="36" cy="30" r="3" fill="#FF9800" />
  <circle cx="42" cy="34" r="3" fill="#FF9800" />
  <rect x="22" y="29" width="8" height="2" fill="#FF9800" />
  <rect x="25" y="26" width="2" height="8" fill="#FF9800" />
  
  <!-- Лист (символизирует жизнь и рост) -->
  <path d="M32 15 Q42 20 42 30 Q32 25 22 30 Q22 20 32 15" fill="#8BC34A" />
  
  <!-- Звезда (символизирует достижения) -->
  <path d="M32 10 L33.5 14 L38 14 L34.5 17 L36 21 L32 18 L28 21 L29.5 17 L26 14 L30.5 14 Z" fill="#FFC107" />
</svg> 